<?xml version="1.0" encoding="UTF-8" standalone="no"?>
<!-- Created with Inkscape (http://www.inkscape.org/) -->

<svg
   version="1.1"
   id="svg9"
   width="456.61804"
   height="136.82227"
   viewBox="0 0 456.61804 136.82227"
   xmlns="http://www.w3.org/2000/svg"
   xmlns:svg="http://www.w3.org/2000/svg">
  <defs
     id="defs13">
    <rect
       x="178.09265"
       y="172.82883"
       width="335.65494"
       height="46.046829"
       id="rect3082" />
  </defs>
  <g
     id="layer1"
     style="display:inline;opacity:1;fill:#000000"
     transform="translate(-21.223054,-176.87062)">
    <path
       style="opacity:1;fill:#ffffff;fill-opacity:0;stroke:#ffffff;stroke-width:14.427;stroke-dasharray:none;stroke-opacity:1"
       d="m 28.436553,276.13502 v -60.49045 l 55.197871,-30.53055 54.647646,30.22621 v 59.78662 l -54.882676,30.35621 z"
       id="path1063" />
    <path
       style="opacity:1;fill:#ffffff;stroke:#ffffff;stroke-width:1.10694;stroke-opacity:1"
       d="m 63.251999,235.72404 8.945027,-8.6535 7.980365,7.4773 v 8.98956 h -8.594234 z"
       id="path1175" />
    <path
       style="opacity:1;fill:#ffffff;stroke:#ffffff;stroke-width:1.10688;stroke-dasharray:none;stroke-opacity:1"
       d="m 85.088387,234.63185 7.761129,-7.43528 8.769634,8.40144 -8.024215,7.68734 h -8.59424 z"
       id="path1177" />
    <path
       style="opacity:1;fill:#ffffff;stroke:#ffffff;stroke-width:1.10694;stroke-opacity:1"
       d="m 63.251999,255.55147 7.892672,-7.56131 h 8.857324 v 8.23342 l -8.243454,7.89736 z"
       id="path1179" />
    <path
       style="opacity:1;fill:#ffffff;stroke:#ffffff;stroke-width:1.10694;stroke-opacity:1"
       d="m 84.912996,247.99016 v 8.23342 l 8.155749,7.81335 8.813485,-8.44345 -7.892668,-7.56131 z"
       id="path1181" />
    <text
       xml:space="preserve"
       id="text3080"
       style="font-style:normal;font-variant:normal;font-weight:normal;font-stretch:normal;font-size:37.3333px;font-family:'Bakbak One';-inkscape-font-specification:'Bakbak One, Normal';font-variant-ligatures:normal;font-variant-caps:normal;font-variant-numeric:normal;font-variant-east-asian:normal;white-space:pre;shape-inside:url(#rect3082);display:inline;opacity:1;fill:#ffffff;fill-opacity:0;stroke:#ffffff;stroke-width:1.381;stroke-dasharray:none;stroke-opacity:1"
       transform="matrix(1.1344937,0,0,1.0455283,-39.436327,43.884344)"><tspan
         x="178.0918"
         y="205.49476"
         id="tspan411"><tspan
           style="fill-opacity:1"
           id="tspan409">MX KEYBOARDS</tspan></tspan></text>
    <path
       style="fill:#ffffff;stroke:#ffffff;stroke-width:0.0431563"
       d="m 80.108565,242.79687 c 3e-6,-1.2375 0.0039,-1.7392 0.0086,-1.11488 0.0047,0.62431 0.0047,1.63681 -5e-6,2.25 -0.0047,0.61318 -0.0086,0.10238 -0.0086,-1.13512 z"
       id="path1318"
       transform="translate(0.74069476,-1.1203474)" />
    <path
       style="fill:#ffffff;stroke:#ffffff;stroke-width:0.0431563"
       d="m 80.071011,243.40625 c 0,-0.0773 0.0061,-0.10898 0.01354,-0.0703 0.0074,0.0387 0.0074,0.10195 0,0.14062 -0.0074,0.0387 -0.01354,0.007 -0.01354,-0.0703 z"
       id="path1322"
       transform="translate(0.74069476,-1.1203474)" />
    <path
       style="fill:#ffffff;stroke:#ffffff;stroke-width:0.0431563"
       d="m 80.039131,243.04687 c 3.46e-4,-0.0688 0.0067,-0.0932 0.01422,-0.0543 0.0075,0.0389 0.0072,0.0951 -6.31e-4,0.125 -0.0078,0.0299 -0.01394,-0.002 -0.01359,-0.0707 z"
       id="path1328"
       transform="translate(0.74069476,-1.1203474)" />
    <path
       style="fill:#ffffff;stroke:#ffffff;stroke-width:0.0431563"
       d="m 85.135123,245.03907 c 0.650099,-0.005 1.704786,-0.005 2.34375,1e-5 0.638963,0.005 0.107064,0.009 -1.181998,0.009 -1.289063,0 -1.811851,-0.004 -1.161752,-0.009 z"
       id="path1338"
       transform="translate(0.74069476,-1.1203474)" />
    <path
       style="fill:#ffffff;stroke:#ffffff;stroke-width:0.0431563"
       d="m 83.96875,244.99219 c 0,-0.0129 1.528125,-0.0234 3.395833,-0.0234 1.867708,0 3.385731,0.0101 3.373384,0.0224 -0.03,0.03 -6.769216,0.031 -6.769217,9.9e-4 z"
       id="path1340"
       transform="translate(0.74069476,-1.1203474)" />
    <path
       style="fill:#ffffff;stroke:#ffffff;stroke-width:0.0431563"
       d="m 72.15625,264.9566 c 0,-0.0257 4.317548,-4.14947 4.330687,-4.13633 0.03115,0.0312 -2.519086,2.51196 -3.742541,3.64067 -0.496756,0.45828 -0.588146,0.5353 -0.588146,0.49566 z"
       id="path1350"
       transform="translate(0.74069476,-1.1203474)" />
  </g>
</svg>
