<?xml version="1.0" encoding="UTF-8" standalone="no"?>
<!-- Created with Inkscape (http://www.inkscape.org/) -->

<svg
   version="1.1"
   id="svg9"
   width="124.27254"
   height="136.82228"
   viewBox="0 0 124.27254 136.82228"
   sodipodi:docname="mx keyboards logo only.svg"
   inkscape:version="1.2.2 (732a01da63, 2022-12-09)"
   inkscape:export-filename="mxswlogoonly.svg"
   inkscape:export-xdpi="294.70511"
   inkscape:export-ydpi="294.70511"
   xmlns:inkscape="http://www.inkscape.org/namespaces/inkscape"
   xmlns:sodipodi="http://sodipodi.sourceforge.net/DTD/sodipodi-0.dtd"
   xmlns="http://www.w3.org/2000/svg"
   xmlns:svg="http://www.w3.org/2000/svg">
  <defs
     id="defs13" />
  <sodipodi:namedview
     id="namedview11"
     pagecolor="#505050"
     bordercolor="#eeeeee"
     borderopacity="1"
     inkscape:showpageshadow="0"
     inkscape:pageopacity="0"
     inkscape:pagecheckerboard="0"
     inkscape:deskcolor="#505050"
     showgrid="false"
     inkscape:zoom="2.2797122"
     inkscape:cx="191.25221"
     inkscape:cy="243.45178"
     inkscape:window-width="1920"
     inkscape:window-height="1009"
     inkscape:window-x="-8"
     inkscape:window-y="-8"
     inkscape:window-maximized="1"
     inkscape:current-layer="layer1" />
  <g
     inkscape:groupmode="layer"
     id="layer1"
     inkscape:label="PNG"
     style="display:inline;opacity:1;fill:#000000"
     transform="translate(-186.15615,-179.50253)">
    <path
       style="opacity:1;fill:#ffffff;fill-opacity:0;stroke:#ffffff;stroke-width:14.427;stroke-dasharray:none;stroke-opacity:1"
       d="m 193.36965,278.76693 v -60.49045 l 55.19787,-30.53055 54.64765,30.22621 v 59.78662 l -54.88268,30.35621 z"
       id="path1063" />
    <path
       style="opacity:1;fill:#ffffff;stroke:#ffffff;stroke-width:1.10694;stroke-opacity:1"
       d="m 228.1851,238.35595 8.94503,-8.6535 7.98036,7.4773 v 8.98956 h -8.59423 z"
       id="path1175" />
    <path
       style="opacity:1;fill:#ffffff;stroke:#ffffff;stroke-width:1.10688;stroke-dasharray:none;stroke-opacity:1"
       d="m 250.02149,237.26376 7.76113,-7.43528 8.76963,8.40144 -8.02422,7.68734 h -8.59424 z"
       id="path1177" />
    <path
       style="opacity:1;fill:#ffffff;stroke:#ffffff;stroke-width:1.10694;stroke-opacity:1"
       d="m 228.1851,258.18338 7.89267,-7.56131 h 8.85732 v 8.23342 l -8.24345,7.89736 z"
       id="path1179" />
    <path
       style="opacity:1;fill:#ffffff;stroke:#ffffff;stroke-width:1.10694;stroke-opacity:1"
       d="m 249.8461,250.62207 v 8.23342 l 8.15574,7.81335 8.81349,-8.44345 -7.89267,-7.56131 z"
       id="path1181" />
    <path
       style="fill:#000000;stroke:#ffffff;stroke-width:0.42835"
       d="m 223.79033,288.17628 -23.5732,-12.62455 -0.0793,-25.95104 -0.0793,-25.95103 1.16492,-0.59443 c 0.64071,-0.32694 11.39224,-6.25197 23.89229,-13.16674 l 22.72736,-12.5723 23.56606,13.03839 23.56606,13.03839 -0.0129,25.63292 -0.0129,25.63293 -23.59303,13.02729 c -12.97617,7.16501 -23.683,13.04697 -23.79297,13.07101 -0.10995,0.024 -10.80786,-5.63733 -23.77312,-12.58084 z m 18.06762,-24.9843 3.17928,-3.10024 v -4.58061 -4.5806 l -5.04032,0.011 -5.04033,0.0109 -4.30334,4.21178 -4.30335,4.21178 4.7609,4.76834 4.7609,4.76835 1.40349,-1.31023 c 0.77192,-0.72063 2.83416,-2.70535 4.58277,-4.41048 z m 20.50357,0.79052 4.76227,-4.59568 -4.09389,-3.99552 c -2.25164,-2.19753 -4.32487,-4.09038 -4.60718,-4.20634 -0.2823,-0.11596 -2.64185,-0.22064 -5.24343,-0.23263 l -4.73015,-0.0218 -0.004,4.73015 -0.004,4.73015 4.26914,4.09468 c 2.34802,2.25208 4.40871,4.09423 4.57931,4.09368 0.17059,-6.2e-4 2.45319,-2.06906 5.07243,-4.59669 z m -17.32429,-20.93626 v -5.09272 l -4.21269,-3.97986 c -2.31699,-2.18892 -4.32782,-3.97986 -4.46852,-3.97986 -0.1407,0 -2.43558,2.14045 -5.09972,4.75654 l -4.8439,4.75654 3.03108,2.84272 c 1.66709,1.56349 3.72911,3.5027 4.58226,4.30935 l 1.55119,1.46663 4.73015,0.007 4.73015,0.007 z m 17.31326,0.67275 c 2.3341,-2.26039 4.28469,-4.19754 4.33465,-4.30478 0.13824,-0.29672 -9.22933,-9.11023 -9.68293,-9.11023 -0.21789,0 -2.23147,1.76814 -4.47462,3.92919 l -4.07845,3.9292 v 4.83321 4.83321 h 4.82877 4.82878 z"
       id="path473"
       transform="translate(0.74069476,-1.1203474)" />
  </g>
</svg>
